<svg width="656" height="191" viewBox="0 0 656 191" fill="none" xmlns="http://www.w3.org/2000/svg">
<path d="M48.4749 111.209L32.0268 147.59H0L68.2362 7.49934H106.737L123.185 147.578H91.5338L88.8316 111.197L48.4749 111.209ZM87.5862 88.3472L84.6726 58.2097C84.2614 50.5228 83.4272 39.2916 82.8045 30.7714H82.3933C78.8687 39.2916 74.8977 50.1003 71.1499 58.2097L57.216 88.3472H87.5862Z" fill="#381968"/>
<path d="M129.823 147.578L158.113 0.0120425H188.072L159.782 147.578H129.823Z" fill="#381968"/>
<path d="M283.779 85.4956C283.779 122.698 258.191 149.925 223.027 149.925C197.18 149.925 179.956 133.084 179.956 107.676C179.956 72.551 204.511 43.458 240.72 43.458C267.966 43.458 283.779 62.1531 283.779 85.4956ZM210.938 107.312C210.938 119.166 216.812 127.064 227.386 127.064C243.411 127.064 252.775 102.947 252.775 85.7068C252.775 76.3182 248.604 66.378 236.749 66.378C219.491 66.3193 210.961 91.4574 210.961 107.254L210.938 107.312Z" fill="#381968"/>
<path d="M404.861 0.0117718L384.265 108.087C381.698 121.114 380.1 134.314 379.484 147.578H352.015L353.472 131.148H353.061C344.108 144.655 331.631 149.854 319.565 149.854C302.295 149.854 288.15 136.135 288.15 111.408C288.15 76.0714 313.738 43.446 352.227 43.446C356.983 43.4794 361.699 44.3207 366.172 45.9339L375.113 0L404.861 0.0117718ZM362.002 69.8515C359.511 67.7742 354.952 66.3307 350.147 66.3307C332.042 66.3307 319.354 87.1148 319.354 106.643C319.354 118.907 324.758 125.773 333.288 125.773C342.029 125.773 352.638 116.619 356.597 97.0902L362.002 69.8515Z" fill="#381968"/>
<path d="M393.626 147.578L412.976 45.9455H442.935L423.585 147.578H393.626ZM431.492 33.2709C423.162 33.2709 417.135 27.403 417.135 18.7185C417.116 16.4574 417.551 14.2155 418.414 12.1255C419.278 10.0355 420.553 8.1398 422.163 6.55082C423.774 4.96185 425.687 3.71185 427.79 2.87487C429.893 2.03788 432.142 1.63091 434.405 1.6781C443.346 1.6781 449.585 7.54604 449.585 16.43C449.585 26.9922 441.478 33.2709 431.903 33.2709H431.492Z" fill="#381968"/>
<path d="M446.884 161.707C452.5 165.029 464.778 167.317 473.519 167.317C488.498 167.317 499.518 160.675 503.889 140.325L505.557 131.593H505.146C497.239 141.991 488.075 146.768 476.009 146.768C455.837 146.768 443.56 130.338 443.348 110.387C443.137 76.928 467.28 43.6688 511.596 43.6688C524.465 43.5719 537.232 45.9629 549.192 50.7103L533.789 134.469C530.265 153.176 524.39 169.805 512.371 179.569C501.339 188.301 486.524 191 473.037 191C459.315 191 446.826 188.512 439.753 184.557L446.884 161.707ZM516.836 68.3962C513.378 67.1006 509.708 66.4636 506.015 66.5184C487.923 66.5184 475.023 86.6805 475.023 105.798C475.023 116.196 479.593 123.672 488.757 123.672C498.532 123.672 508.306 112.664 511.643 95.6232L516.836 68.3962Z" fill="#381968"/>
<path d="M613.74 147.578C613.952 141.546 614.574 134.668 614.986 127.416H614.574C605.175 144.257 592.099 149.866 580.245 149.866C561.94 149.866 549.452 135.725 549.452 114.53C549.452 80.2378 572.338 43.6574 622.293 43.6574C633.709 43.711 645.059 45.3905 656 48.6451L645.426 101.855C642.936 114.952 640.844 134.903 641.267 147.625L613.74 147.578ZM622.27 67.1525C619.599 66.6226 616.885 66.3436 614.163 66.3192C594.813 66.3192 580.668 90.002 580.668 108.92C580.668 118.896 584.615 125.761 592.933 125.761C601.886 125.761 612.906 115.574 617.699 90.6358L622.27 67.1525Z" fill="#381968"/>
</svg>
